<?xml version="1.0" encoding="UTF-8" standalone="no"?>
<!-- Created with Inkscape (http://www.inkscape.org/) -->

<svg
   version="1.1"
   id="svg1"
   width="267.22134"
   height="101.12053"
   viewBox="0 0 267.22134 101.12053"
   xmlns="http://www.w3.org/2000/svg"
   xmlns:svg="http://www.w3.org/2000/svg">
  <defs
     id="defs1" />
  <g
     id="layer-MC0">
    <path
       id="path1"
       d="m 91.566,49.438 h 7.828 v -6.879 h -7.828 z m 7.828,-9.899 3.312,2.014 v 8.892 l -3.522,2.08 H 88.187 V 31.184 h 3.379 v 8.322 h 4.149 l 4.75,-8.322 h 3.78 z"
       style="fill:#ffffff;fill-opacity:1;fill-rule:nonzero;stroke:none"
       transform="matrix(1.3333333,0,0,-1.3333333,0,101.12053)" />
    <path
       id="path2"
       d="m 0,0 v -19.294 h 13.649 v 3.02 H 3.345 v 6.409 h 8.531 v 3.02 H 3.345 V -1.04 H 13.649 V 2.047 H 3.412 Z"
       style="fill:#ffffff;fill-opacity:1;fill-rule:nonzero;stroke:none"
       transform="matrix(1.3333333,0,0,-1.3333333,143.67707,33.816267)" />
    <path
       id="path3"
       d="m 0,0 -3.513,-1.98 v -8.254 L 0,-12.314 h 7.46 v -6.007 H -3.345 v -3.02 H 7.46 l 3.312,1.846 v 8.388 l -3.513,2.148 h -7.426 v 5.872 H 10.17 V 0 Z"
       style="fill:#ffffff;fill-opacity:1;fill-rule:nonzero;stroke:none"
       transform="matrix(1.3333333,0,0,-1.3333333,171.46573,31.0872)" />
    <path
       id="path4"
       d="m 147.935,40.311 h -6.155 v 3.322 h 6.155 z"
       style="fill:#ffffff;fill-opacity:1;fill-rule:nonzero;stroke:none"
       transform="matrix(1.3333333,0,0,-1.3333333,0,101.12053)" />
    <path
       id="path5"
       d="m 0,0 h -5.046 v 5.061 h -5.079 V 0 h -5.046 v -5.095 h 5.046 v -5.061 h 5.079 v 5.061 H 0 Z"
       style="fill:#fbba00;fill-opacity:1;fill-rule:nonzero;stroke:none"
       transform="matrix(1.3333333,0,0,-1.3333333,246.99267,41.9736)" />
    <path
       id="path6"
       d="M 0,0 H -1.568 L -2.085,1.018 H -5.528 L -5.061,0 H -9.3 V 15.234 H 0 Z M 3.379,16.375 -0.1,18.321 h -9.167 l -3.412,-1.946 V -1.174 l 3.312,-1.846 h 5.69 l 1.169,-2.549 h 3.765 l -1.293,2.549 3.415,1.913 z"
       style="fill:#ffffff;fill-opacity:1;fill-rule:nonzero;stroke:none"
       transform="matrix(1.3333333,0,0,-1.3333333,217.14093,55.5148)" />
    <path
       id="path7"
       d="M 0,0 -0.816,3.371 H -1.302 L -2.118,0 Z M -2.147,4.287 H 0.019 L 1.661,-2.387 H 0.563 l -0.349,1.422 h -2.545 l -0.36,-1.422 h -1.088 z"
       style="fill:#ffffff;fill-opacity:1;fill-rule:nonzero;stroke:none"
       transform="matrix(1.3333333,0,0,-1.3333333,122.05413,70.752667)" />
    <path
       id="path8"
       d="m 0,0 c 0,1.744 0.583,2.475 2.03,2.475 0.379,0 1.049,-0.107 1.457,-0.185 L 3.448,1.442 C 3.118,1.471 2.584,1.52 2.312,1.52 1.302,1.52 1.078,1.111 1.078,0 c 0,-1.247 0.195,-1.656 1.244,-1.656 0.272,0 0.806,0.048 1.136,0.078 L 3.487,-2.436 C 3.07,-2.514 2.38,-2.611 2.011,-2.611 0.515,-2.611 0,-1.871 0,0"
       style="fill:#ffffff;fill-opacity:1;fill-rule:nonzero;stroke:none"
       transform="matrix(1.3333333,0,0,-1.3333333,125.06987,70.5968)" />
    <path
       id="path9"
       d="M 0,0 V 2.26 H -0.622 V 3.167 H 0 V 4.579 H 1.059 V 3.167 H 2.39 V 2.26 H 1.059 V 0.117 c 0,-0.731 0.019,-0.984 0.524,-0.984 0.195,0 0.564,0.019 0.797,0.039 L 2.429,-1.686 C 2.147,-1.744 1.69,-1.812 1.438,-1.812 0.34,-1.812 0,-1.403 0,0"
       style="fill:#ffffff;fill-opacity:1;fill-rule:nonzero;stroke:none"
       transform="matrix(1.3333333,0,0,-1.3333333,131.5708,71.662)" />
    <path
       id="path10"
       d="m 101.966,25.26 h 1.059 v -4.872 h -1.059 z m 0,1.949 h 1.059 v -1.13 h -1.059 z"
       style="fill:#ffffff;fill-opacity:1;fill-rule:nonzero;stroke:none"
       transform="matrix(1.3333333,0,0,-1.3333333,0,101.12053)" />
    <path
       id="path11"
       d="M 0,0 H 1.117 L 2.04,-3.965 H 2.351 L 3.322,0 H 4.4 L 3.147,-4.872 H 1.253 Z"
       style="fill:#ffffff;fill-opacity:1;fill-rule:nonzero;stroke:none"
       transform="matrix(1.3333333,0,0,-1.3333333,138.50973,67.44)" />
    <path
       id="path12"
       d="M 0,0 V 1.276 L -1.117,1.179 C -1.554,1.13 -1.778,0.926 -1.778,0.487 c 0,-0.429 0.175,-0.711 0.593,-0.711 0.388,0 0.903,0.127 1.185,0.224 m -2.846,0.458 c 0,1.033 0.563,1.383 1.603,1.471 L 0,2.036 v 0.351 c 0,0.526 -0.223,0.692 -0.699,0.692 -0.476,0 -1.321,-0.059 -1.827,-0.098 l -0.038,0.76 c 0.456,0.108 1.301,0.254 1.952,0.254 1.185,0 1.671,-0.497 1.671,-1.608 V 0.166 c 0.029,-0.293 0.145,-0.4 0.427,-0.449 L 1.457,-1.091 c -0.33,0 -0.573,0.019 -0.787,0.097 -0.184,0.049 -0.35,0.137 -0.505,0.263 -0.34,-0.156 -0.991,-0.36 -1.564,-0.36 -0.961,0 -1.447,0.536 -1.447,1.549"
       style="fill:#ffffff;fill-opacity:1;fill-rule:nonzero;stroke:none"
       transform="matrix(1.3333333,0,0,-1.3333333,148.92467,72.623333)" />
    <path
       id="path13"
       d="M 0,0 V 2.26 H -0.622 V 3.167 H 0 V 4.579 H 1.059 V 3.167 H 2.39 V 2.26 H 1.059 V 0.117 c 0,-0.731 0.019,-0.984 0.524,-0.984 0.195,0 0.564,0.019 0.797,0.039 L 2.429,-1.686 C 2.147,-1.744 1.69,-1.812 1.438,-1.812 0.34,-1.812 0,-1.403 0,0"
       style="fill:#ffffff;fill-opacity:1;fill-rule:nonzero;stroke:none"
       transform="matrix(1.3333333,0,0,-1.3333333,152.36253,71.662)" />
    <path
       id="path14"
       d="M 0,0 C 0,0.965 -0.282,1.296 -0.991,1.296 -1.71,1.296 -2.02,0.926 -2.03,0 Z m -3.099,-0.419 c 0,1.783 0.768,2.592 2.108,2.592 1.36,0 2.04,-0.711 2.04,-2.231 L 0.981,-0.818 H -2.02 c 0,-0.78 0.291,-1.16 1.097,-1.16 0.564,0 1.36,0.049 1.797,0.088 l 0.02,-0.799 c -0.476,-0.098 -1.341,-0.224 -1.972,-0.224 -1.457,0 -2.021,0.779 -2.021,2.494"
       style="fill:#ffffff;fill-opacity:1;fill-rule:nonzero;stroke:none"
       transform="matrix(1.3333333,0,0,-1.3333333,160.5808,70.194133)" />
    <path
       id="path15"
       d="m 0,0 c 0,1.647 -0.301,2.523 -1.574,2.523 -1.282,0 -1.583,-0.867 -1.583,-2.523 0,-1.676 0.291,-2.455 1.583,-2.455 C -0.291,-2.455 0,-1.705 0,0 M -0.991,-3.352 C -1.117,-3.391 -1.36,-3.41 -1.574,-3.41 c -2.088,0 -2.71,1.15 -2.71,3.41 0,2.231 0.632,3.478 2.71,3.478 2.079,0 2.701,-1.237 2.701,-3.478 0,-1.51 -0.282,-2.465 -1.059,-2.991 l 0.816,-1.316 -1.001,-0.467 z"
       style="fill:#ffffff;fill-opacity:1;fill-rule:nonzero;stroke:none"
       transform="matrix(1.3333333,0,0,-1.3333333,172.1992,69.531467)" />
    <path
       id="path16"
       d="M 0,0 V 2.543 H 1.059 V -0.01 c 0,-1.062 0.078,-1.471 0.816,-1.471 0.447,0 0.884,0.136 1.107,0.253 V 2.543 H 4.041 V -2.329 H 2.992 v 0.302 C 2.516,-2.28 2.127,-2.436 1.574,-2.436 0.291,-2.436 0,-1.617 0,0"
       style="fill:#ffffff;fill-opacity:1;fill-rule:nonzero;stroke:none"
       transform="matrix(1.3333333,0,0,-1.3333333,175.22013,70.830667)" />
    <path
       id="path17"
       d="M 0,0 V 1.276 L -1.117,1.179 C -1.554,1.13 -1.778,0.926 -1.778,0.487 c 0,-0.429 0.175,-0.711 0.593,-0.711 0.388,0 0.903,0.127 1.185,0.224 m -2.846,0.458 c 0,1.033 0.563,1.383 1.603,1.471 L 0,2.036 v 0.351 c 0,0.526 -0.223,0.692 -0.699,0.692 -0.476,0 -1.321,-0.059 -1.827,-0.098 l -0.038,0.76 c 0.456,0.108 1.301,0.254 1.952,0.254 1.185,0 1.671,-0.497 1.671,-1.608 V 0.166 c 0.029,-0.293 0.145,-0.4 0.427,-0.449 L 1.457,-1.091 c -0.33,0 -0.573,0.019 -0.787,0.097 -0.184,0.049 -0.35,0.137 -0.505,0.263 -0.34,-0.156 -0.991,-0.36 -1.564,-0.36 -0.961,0 -1.447,0.536 -1.447,1.549"
       style="fill:#ffffff;fill-opacity:1;fill-rule:nonzero;stroke:none"
       transform="matrix(1.3333333,0,0,-1.3333333,185.72467,72.623333)" />
    <path
       id="path18"
       d="m 141.72,27.287 h 1.059 v -6.898 h -1.059 z"
       style="fill:#ffffff;fill-opacity:1;fill-rule:nonzero;stroke:none"
       transform="matrix(1.3333333,0,0,-1.3333333,0,101.12053)" />
    <path
       id="path19"
       d="m 144.062,25.26 h 1.059 v -4.872 h -1.059 z m 0,1.949 h 1.059 v -1.13 h -1.059 z"
       style="fill:#ffffff;fill-opacity:1;fill-rule:nonzero;stroke:none"
       transform="matrix(1.3333333,0,0,-1.3333333,0,101.12053)" />
    <path
       id="path20"
       d="M 0,0 V 2.26 H -0.622 V 3.167 H 0 V 4.579 H 1.059 V 3.167 H 2.39 V 2.26 H 1.059 V 0.117 c 0,-0.731 0.019,-0.984 0.524,-0.984 0.195,0 0.564,0.019 0.797,0.039 L 2.429,-1.686 C 2.147,-1.744 1.69,-1.812 1.438,-1.812 0.34,-1.812 0,-1.403 0,0"
       style="fill:#ffffff;fill-opacity:1;fill-rule:nonzero;stroke:none"
       transform="matrix(1.3333333,0,0,-1.3333333,195.5028,71.662)" />
    <path
       id="path21"
       d="m 0,0 h -0.835 l -1.273,4.872 h 1.049 l 1.02,-3.966 h 0.262 l 1.03,3.966 H 2.302 L 0.466,-2.095 h -1.049 z"
       style="fill:#ffffff;fill-opacity:1;fill-rule:nonzero;stroke:none"
       transform="matrix(1.3333333,0,0,-1.3333333,202.39613,73.935467)" />
    <path
       id="path22"
       d="m 0,0 c -0.743,0 -2.04,0.066 -3.462,0.435 -2.728,0.707 -4.682,2.221 -5.685,4.392 -1.001,-0.353 -2.101,-0.756 -3.307,-1.216 0.77,-0.939 2.21,-2.375 4.265,-3.097 2.575,-0.906 3.378,-1.074 8.279,-5.939 h 3.364 v 1.761 H 0.09 V -1.76 H 5.761 V 10e-4 H 0.173 C 0.119,0.001 0.062,0 0,0"
       style="fill:#ffffff;fill-opacity:1;fill-rule:nonzero;stroke:none"
       transform="matrix(1.3333333,0,0,-1.3333333,77.091067,73.597467)" />
    <path
       id="path23"
       d="M 0,0 C -0.275,-0.008 -2.357,-0.146 -8.227,-2.155 -6.383,-5.972 -1.54,-6.269 0,-6.264 v 0.836 h 12.445 v 1.761 H 0 v 1.904 h 18.316 v 1.761 L 0,-0.002 Z"
       style="fill:#ffffff;fill-opacity:1;fill-rule:nonzero;stroke:none"
       transform="matrix(1.3333333,0,0,-1.3333333,77.211467,63.819867)" />
    <path
       id="path24"
       d="m 0,0 -0.524,0.09 -0.525,0.088 c 0.003,0.014 0.216,1.387 -0.572,2.16 -0.567,0.555 -1.549,0.706 -2.92,0.449 L -4.737,3.835 C -3.001,4.162 -1.7,3.912 -0.871,3.094 0.312,1.927 0.013,0.078 0,0 m 31.457,-17.883 v 1.761 H 8.324 v 1.904 h 22.18 v 1.761 H 8.324 v 1.904 h 20.775 v 1.762 H 8.324 v 1.903 H 26.64 v 1.762 H 8.324 v 1.903 h 12.445 v 1.762 H 8.33 v -10e-4 c 0,0 0,10e-4 0,10e-4 H 8.324 v 0.004 C 8.207,-1.365 5.963,0.372 3.572,1.089 L 2.317,1.465 c 0,0 0.782,0.166 1.185,0.475 0.439,0.337 0.599,0.549 0.988,1.01 L 5.288,2.355 C 5.121,2.086 4.888,1.896 4.774,1.8 6.257,1.219 7.571,0.386 8.324,-0.137 V 0.442 H 15.4 V 2.204 H 8.324 v 1.812 c 0,0 -5.581,3.069 -15.941,0.354 2.518,-2.173 1.9,-4.216 0.82,-6.614 -0.641,-1.422 -0.398,-3.282 0.23,-4.128 0.146,-0.196 0.376,-0.422 0.646,-0.386 0.201,0.028 0.922,0.283 1.756,2.429 0.457,1.176 1.263,2.02 2.395,2.507 3.075,1.323 7.516,-0.47 7.703,-0.547 L 5.53,-3.357 c -0.042,0.017 -4.219,1.702 -6.882,0.554 -0.872,-0.376 -1.468,-1.002 -1.822,-1.913 -0.747,-1.923 -1.624,-2.966 -2.604,-3.099 -0.069,-0.009 -0.138,-0.014 -0.207,-0.014 -0.534,0 -1.038,0.286 -1.434,0.819 -0.824,1.109 -1.179,3.359 -0.347,5.205 1.05,2.332 1.576,4.223 -1.12,5.821 -0.001,0 -3.957,2.028 -9.028,-2.344 1.131,-0.811 1.919,-2.276 0.783,-4.914 -1.165,-2.706 -0.863,-3.961 -0.597,-5.067 l 0.024,-0.1 c 0.502,-2.099 1.637,-2.912 2.501,-3.225 1.084,-0.393 2.077,-0.147 2.368,0.071 0.364,0.273 1.214,0.912 0.165,4.069 -1.237,3.722 0.933,7.189 1.026,7.334 l 0.448,-0.287 0.448,-0.287 c -0.02,-0.032 -1.987,-3.193 -0.914,-6.423 1.145,-3.445 0.316,-4.62 -0.535,-5.259 -0.384,-0.289 -1.057,-0.49 -1.83,-0.49 -0.488,0 -1.016,0.08 -1.537,0.268 -1.11,0.402 -2.562,1.419 -3.174,3.98 l -0.024,0.098 c -0.29,1.207 -0.651,2.708 0.655,5.741 0.975,2.264 0.234,3.239 -0.613,3.75 -0.001,-0.001 -0.002,-0.001 -0.003,-0.002 0,0 -9.519,2.275 -12.208,-9.117 0.732,0.322 1.791,0.699 2.978,0.834 0.756,0.087 1.461,0.058 2.111,-0.078 0.324,0.576 1.08,1.711 2.508,2.84 l 0.658,-0.837 c -1.141,-0.903 -1.8,-1.807 -2.125,-2.336 0.812,-0.36 1.508,-0.927 2.062,-1.698 1.487,-2.066 1.353,-3.899 0.917,-5.149 1.822,-2.355 4.362,-0.67 4.472,-0.595 l 0.601,-0.88 c -0.613,-0.422 -1.615,-0.851 -2.706,-0.851 -0.952,0 -1.973,0.329 -2.864,1.27 -0.246,-0.407 -0.455,-0.638 -0.463,-0.646 l -0.777,0.728 c 0.09,0.098 2.171,2.423 -0.042,5.499 -0.952,1.322 -2.375,1.885 -4.232,1.674 -1.552,-0.178 -2.896,-0.837 -3.368,-1.092 0,-10e-4 0,-10e-4 0,-0.002 0,0 -3.178,-1.711 -3.212,-4.832 -0.02,-1.865 0.57,-3.479 1.334,-4.676 1.159,-1.645 3.099,-1.196 3.118,-1.19 l 0.316,-1.018 c -0.01,-0.004 -0.353,-0.105 -0.88,-0.105 -0.192,0 -0.41,0.014 -0.644,0.051 0.961,-1.529 4.643,-6.291 12.918,-5.679 -0.532,0.737 -0.852,1.686 -0.968,2.867 -0.207,-0.007 -0.411,-0.011 -0.61,-0.011 -3.188,0 -5.499,0.908 -6.88,2.708 -1.067,1.39 -1.55,3.33 -1.397,5.609 0.01,0.145 0.023,0.286 0.037,0.425 -1.435,1.002 -3.706,0.068 -3.73,0.058 l -0.41,0.984 c 0.109,0.046 2.44,1.002 4.3,0.095 0.157,0.86 0.34,1.424 0.351,1.459 l 0.505,-0.167 0.505,-0.168 c 0,0 0,0 0,0 -0.023,-0.069 -1.523,-4.776 0.685,-7.648 1.245,-1.619 3.463,-2.383 6.594,-2.277 0,1.863 1.139,3.983 2.833,5.275 1.444,1.1 3.186,1.528 4.973,1.235 1.151,1.918 2.539,3.241 3.987,4.144 0.044,0.516 -0.135,1.016 -0.137,1.022 l 0.996,0.372 c 0.021,-0.056 0.136,-0.379 0.187,-0.815 1.702,0.828 3.425,1.146 4.886,1.227 0.887,0.049 1.725,0.016 2.48,-0.058 2.9,0.788 3.35,3.274 3.368,3.38 l 1.05,-0.169 c -0.018,-0.11 -0.379,-2.217 -2.455,-3.517 0.96,-0.206 1.558,-0.421 1.61,-0.44 l -0.364,-1.002 c 0,0 0,0 -10e-4,0 -0.045,0.016 -2.578,0.918 -5.665,0.738 -3.855,-0.223 -6.829,-1.95 -8.851,-5.137 4.345,-1.119 7.787,-0.124 7.822,-0.114 l 0.305,-1.022 c -0.158,-0.048 -3.926,-1.148 -8.731,0.193 -2.211,0.617 -3.839,-0.142 -4.817,-0.887 -1.421,-1.083 -2.413,-2.903 -2.413,-4.427 0,-1.808 0.414,-3.052 1.264,-3.805 0.86,-0.761 2.208,-1.032 4.007,-0.805 l 0.133,-1.058 c -0.453,-0.057 -0.883,-0.086 -1.29,-0.086 -0.809,0 -1.527,0.113 -2.154,0.337 1.42,-1.68 4.662,-3.796 11.373,-1.5 0,0 0.001,-0.003 0.002,-0.004 9.591,3.676 12.71,3.889 13.195,3.897 v 0.835 h 20.775 v 1.761 H 8.324 v 0.835 c -0.838,-0.033 -2.081,-0.092 -3.275,-0.861 -2.291,-1.474 -9.991,-3.3 -14.878,-0.367 -0.232,-0.267 -0.587,-0.929 -0.436,-2.419 l -1.059,-0.107 c -0.299,2.968 1.112,3.608 1.274,3.671 l 0.256,0.1 0.229,-0.152 c 4.413,-2.918 11.936,-1.182 14.039,0.172 1.457,0.938 2.954,0.996 3.85,1.03 v 0.002 h 22.18 v 1.761 H 8.324 v 1.904 z"
       style="fill:#ffffff;fill-opacity:1;fill-rule:nonzero;stroke:none"
       transform="matrix(1.3333333,0,0,-1.3333333,66.1124,27.666533)" />
  </g>
</svg>
