<?xml version="1.0" encoding="UTF-8" standalone="no"?>
<!-- Created with Inkscape (http://www.inkscape.org/) -->

<svg
   version="1.1"
   id="svg1"
   width="267.22134"
   height="101.12053"
   viewBox="0 0 267.22134 101.12053"
   sodipodi:docname="RESQ+_Logo_Full_Colors_RGB.svg"
   inkscape:version="1.4.3 (0d15f75042, 2025-12-25)"
   xmlns:inkscape="http://www.inkscape.org/namespaces/inkscape"
   xmlns:sodipodi="http://sodipodi.sourceforge.net/DTD/sodipodi-0.dtd"
   xmlns="http://www.w3.org/2000/svg"
   xmlns:svg="http://www.w3.org/2000/svg">
  <defs
     id="defs1">
    <linearGradient
       x1="0"
       y1="0"
       x2="1"
       y2="0"
       gradientUnits="userSpaceOnUse"
       gradientTransform="matrix(0,-45.396294,-45.396294,0,54.471653,60.565163)"
       spreadMethod="pad"
       id="linearGradient22">
      <stop
         style="stop-opacity:1;stop-color:#96c0e8"
         offset="0"
         id="stop21" />
      <stop
         style="stop-opacity:1;stop-color:#215a86"
         offset="1"
         id="stop22" />
    </linearGradient>
    <linearGradient
       x1="0"
       y1="0"
       x2="1"
       y2="0"
       gradientUnits="userSpaceOnUse"
       gradientTransform="matrix(0,-45.396294,-45.396294,0,62.953033,60.565163)"
       spreadMethod="pad"
       id="linearGradient24">
      <stop
         style="stop-opacity:1;stop-color:#96c0e8"
         offset="0"
         id="stop23" />
      <stop
         style="stop-opacity:1;stop-color:#215a86"
         offset="1"
         id="stop24" />
    </linearGradient>
    <linearGradient
       x1="0"
       y1="0"
       x2="1"
       y2="0"
       gradientUnits="userSpaceOnUse"
       gradientTransform="matrix(0,-45.396294,-45.396294,0,48.10643,60.581665)"
       spreadMethod="pad"
       id="linearGradient26">
      <stop
         style="stop-opacity:1;stop-color:#96c0e8"
         offset="0"
         id="stop25" />
      <stop
         style="stop-opacity:1;stop-color:#215a86"
         offset="1"
         id="stop26" />
    </linearGradient>
  </defs>
  <sodipodi:namedview
     id="namedview1"
     pagecolor="#ffffff"
     bordercolor="#000000"
     borderopacity="0.25"
     inkscape:showpageshadow="2"
     inkscape:pageopacity="0.0"
     inkscape:pagecheckerboard="0"
     inkscape:deskcolor="#d1d1d1"
     inkscape:zoom="3.4110299"
     inkscape:cx="107.88531"
     inkscape:cy="40.45699"
     inkscape:window-width="1920"
     inkscape:window-height="1128"
     inkscape:window-x="0"
     inkscape:window-y="0"
     inkscape:window-maximized="1"
     inkscape:current-layer="layer-MC0">
    <inkscape:page
       x="0"
       y="0"
       inkscape:label="1"
       id="page1"
       width="267.22134"
       height="101.12053"
       margin="20.2892 20.228001 20.345066 20.228266"
       bleed="0" />
  </sodipodi:namedview>
  <g
     id="layer-MC0"
     inkscape:groupmode="layer"
     inkscape:label="Calque 1">
    <path
       id="path1"
       d="m 91.566,49.438 h 7.828 v -6.879 h -7.828 z m 7.828,-9.899 3.312,2.014 v 8.892 l -3.522,2.08 H 88.187 V 31.184 h 3.379 v 8.322 h 4.149 l 4.75,-8.322 h 3.78 z"
       style="fill:#215a86;fill-opacity:1;fill-rule:nonzero;stroke:none"
       transform="matrix(1.3333333,0,0,-1.3333333,0,101.12053)" />
    <path
       id="path2"
       d="m 0,0 v -19.294 h 13.649 v 3.02 H 3.345 v 6.409 h 8.531 v 3.02 H 3.345 V -1.04 H 13.649 V 2.047 H 3.412 Z"
       style="fill:#215a86;fill-opacity:1;fill-rule:nonzero;stroke:none"
       transform="matrix(1.3333333,0,0,-1.3333333,143.67707,33.816267)" />
    <path
       id="path3"
       d="m 0,0 -3.513,-1.98 v -8.254 L 0,-12.314 h 7.46 v -6.007 H -3.345 v -3.02 H 7.46 l 3.312,1.846 v 8.388 l -3.513,2.148 h -7.426 v 5.872 H 10.17 V 0 Z"
       style="fill:#215a86;fill-opacity:1;fill-rule:nonzero;stroke:none"
       transform="matrix(1.3333333,0,0,-1.3333333,171.46573,31.0872)" />
    <path
       id="path4"
       d="m 147.935,40.311 h -6.155 v 3.322 h 6.155 z"
       style="fill:#215a86;fill-opacity:1;fill-rule:nonzero;stroke:none"
       transform="matrix(1.3333333,0,0,-1.3333333,0,101.12053)" />
    <path
       id="path5"
       d="m 0,0 h -5.046 v 5.061 h -5.079 V 0 h -5.046 v -5.095 h 5.046 v -5.061 h 5.079 v 5.061 H 0 Z"
       style="fill:#fbba00;fill-opacity:1;fill-rule:nonzero;stroke:none"
       transform="matrix(1.3333333,0,0,-1.3333333,246.99267,41.9736)" />
    <path
       id="path6"
       d="M 0,0 H -1.568 L -2.085,1.018 H -5.528 L -5.061,0 H -9.3 V 15.234 H 0 Z M 3.379,16.375 -0.1,18.321 h -9.167 l -3.412,-1.946 V -1.174 l 3.312,-1.846 h 5.69 l 1.169,-2.549 h 3.765 l -1.293,2.549 3.415,1.913 z"
       style="fill:#215a86;fill-opacity:1;fill-rule:nonzero;stroke:none"
       transform="matrix(1.3333333,0,0,-1.3333333,217.14093,55.5148)" />
    <path
       id="path7"
       d="M 0,0 -0.816,3.371 H -1.302 L -2.118,0 Z M -2.147,4.287 H 0.019 L 1.661,-2.387 H 0.563 l -0.349,1.422 h -2.545 l -0.36,-1.422 h -1.088 z"
       style="fill:#7d7d7d;fill-opacity:1;fill-rule:nonzero;stroke:none"
       transform="matrix(1.3333333,0,0,-1.3333333,122.05413,70.752667)" />
    <path
       id="path8"
       d="m 0,0 c 0,1.744 0.583,2.475 2.03,2.475 0.379,0 1.049,-0.107 1.457,-0.185 L 3.448,1.442 C 3.118,1.471 2.584,1.52 2.312,1.52 1.302,1.52 1.078,1.111 1.078,0 c 0,-1.247 0.195,-1.656 1.244,-1.656 0.272,0 0.806,0.048 1.136,0.078 L 3.487,-2.436 C 3.07,-2.514 2.38,-2.611 2.011,-2.611 0.515,-2.611 0,-1.871 0,0"
       style="fill:#7d7d7d;fill-opacity:1;fill-rule:nonzero;stroke:none"
       transform="matrix(1.3333333,0,0,-1.3333333,125.06987,70.5968)" />
    <path
       id="path9"
       d="M 0,0 V 2.26 H -0.622 V 3.167 H 0 V 4.579 H 1.059 V 3.167 H 2.39 V 2.26 H 1.059 V 0.117 c 0,-0.731 0.019,-0.984 0.524,-0.984 0.195,0 0.564,0.019 0.797,0.039 L 2.429,-1.686 C 2.147,-1.744 1.69,-1.812 1.438,-1.812 0.34,-1.812 0,-1.403 0,0"
       style="fill:#7d7d7d;fill-opacity:1;fill-rule:nonzero;stroke:none"
       transform="matrix(1.3333333,0,0,-1.3333333,131.5708,71.662)" />
    <path
       id="path10"
       d="m 101.966,25.26 h 1.059 v -4.872 h -1.059 z m 0,1.949 h 1.059 v -1.13 h -1.059 z"
       style="fill:#7d7d7d;fill-opacity:1;fill-rule:nonzero;stroke:none"
       transform="matrix(1.3333333,0,0,-1.3333333,0,101.12053)" />
    <path
       id="path11"
       d="M 0,0 H 1.117 L 2.04,-3.965 H 2.351 L 3.322,0 H 4.4 L 3.147,-4.872 H 1.253 Z"
       style="fill:#7d7d7d;fill-opacity:1;fill-rule:nonzero;stroke:none"
       transform="matrix(1.3333333,0,0,-1.3333333,138.50973,67.44)" />
    <path
       id="path12"
       d="M 0,0 V 1.276 L -1.117,1.179 C -1.554,1.13 -1.778,0.926 -1.778,0.487 c 0,-0.429 0.175,-0.711 0.593,-0.711 0.388,0 0.903,0.127 1.185,0.224 m -2.846,0.458 c 0,1.033 0.563,1.383 1.603,1.471 L 0,2.036 v 0.351 c 0,0.526 -0.223,0.692 -0.699,0.692 -0.476,0 -1.321,-0.059 -1.827,-0.098 l -0.038,0.76 c 0.456,0.108 1.301,0.254 1.952,0.254 1.185,0 1.671,-0.497 1.671,-1.608 V 0.166 c 0.029,-0.293 0.145,-0.4 0.427,-0.449 L 1.457,-1.091 c -0.33,0 -0.573,0.019 -0.787,0.097 -0.184,0.049 -0.35,0.137 -0.505,0.263 -0.34,-0.156 -0.991,-0.36 -1.564,-0.36 -0.961,0 -1.447,0.536 -1.447,1.549"
       style="fill:#7d7d7d;fill-opacity:1;fill-rule:nonzero;stroke:none"
       transform="matrix(1.3333333,0,0,-1.3333333,148.92467,72.623333)" />
    <path
       id="path13"
       d="M 0,0 V 2.26 H -0.622 V 3.167 H 0 V 4.579 H 1.059 V 3.167 H 2.39 V 2.26 H 1.059 V 0.117 c 0,-0.731 0.019,-0.984 0.524,-0.984 0.195,0 0.564,0.019 0.797,0.039 L 2.429,-1.686 C 2.147,-1.744 1.69,-1.812 1.438,-1.812 0.34,-1.812 0,-1.403 0,0"
       style="fill:#7d7d7d;fill-opacity:1;fill-rule:nonzero;stroke:none"
       transform="matrix(1.3333333,0,0,-1.3333333,152.36253,71.662)" />
    <path
       id="path14"
       d="M 0,0 C 0,0.965 -0.282,1.296 -0.991,1.296 -1.71,1.296 -2.02,0.926 -2.03,0 Z m -3.099,-0.419 c 0,1.783 0.768,2.592 2.108,2.592 1.36,0 2.04,-0.711 2.04,-2.231 L 0.981,-0.818 H -2.02 c 0,-0.78 0.291,-1.16 1.097,-1.16 0.564,0 1.36,0.049 1.797,0.088 l 0.02,-0.799 c -0.476,-0.098 -1.341,-0.224 -1.972,-0.224 -1.457,0 -2.021,0.779 -2.021,2.494"
       style="fill:#7d7d7d;fill-opacity:1;fill-rule:nonzero;stroke:none"
       transform="matrix(1.3333333,0,0,-1.3333333,160.5808,70.194133)" />
    <path
       id="path15"
       d="m 0,0 c 0,1.647 -0.301,2.523 -1.574,2.523 -1.282,0 -1.583,-0.867 -1.583,-2.523 0,-1.676 0.291,-2.455 1.583,-2.455 C -0.291,-2.455 0,-1.705 0,0 M -0.991,-3.352 C -1.117,-3.391 -1.36,-3.41 -1.574,-3.41 c -2.088,0 -2.71,1.15 -2.71,3.41 0,2.231 0.632,3.478 2.71,3.478 2.079,0 2.701,-1.237 2.701,-3.478 0,-1.51 -0.282,-2.465 -1.059,-2.991 l 0.816,-1.316 -1.001,-0.467 z"
       style="fill:#7d7d7d;fill-opacity:1;fill-rule:nonzero;stroke:none"
       transform="matrix(1.3333333,0,0,-1.3333333,172.1992,69.531467)" />
    <path
       id="path16"
       d="M 0,0 V 2.543 H 1.059 V -0.01 c 0,-1.062 0.078,-1.471 0.816,-1.471 0.447,0 0.884,0.136 1.107,0.253 V 2.543 H 4.041 V -2.329 H 2.992 v 0.302 C 2.516,-2.28 2.127,-2.436 1.574,-2.436 0.291,-2.436 0,-1.617 0,0"
       style="fill:#7d7d7d;fill-opacity:1;fill-rule:nonzero;stroke:none"
       transform="matrix(1.3333333,0,0,-1.3333333,175.22013,70.830667)" />
    <path
       id="path17"
       d="M 0,0 V 1.276 L -1.117,1.179 C -1.554,1.13 -1.778,0.926 -1.778,0.487 c 0,-0.429 0.175,-0.711 0.593,-0.711 0.388,0 0.903,0.127 1.185,0.224 m -2.846,0.458 c 0,1.033 0.563,1.383 1.603,1.471 L 0,2.036 v 0.351 c 0,0.526 -0.223,0.692 -0.699,0.692 -0.476,0 -1.321,-0.059 -1.827,-0.098 l -0.038,0.76 c 0.456,0.108 1.301,0.254 1.952,0.254 1.185,0 1.671,-0.497 1.671,-1.608 V 0.166 c 0.029,-0.293 0.145,-0.4 0.427,-0.449 L 1.457,-1.091 c -0.33,0 -0.573,0.019 -0.787,0.097 -0.184,0.049 -0.35,0.137 -0.505,0.263 -0.34,-0.156 -0.991,-0.36 -1.564,-0.36 -0.961,0 -1.447,0.536 -1.447,1.549"
       style="fill:#7d7d7d;fill-opacity:1;fill-rule:nonzero;stroke:none"
       transform="matrix(1.3333333,0,0,-1.3333333,185.72467,72.623333)" />
    <path
       id="path18"
       d="m 141.72,27.287 h 1.059 v -6.898 h -1.059 z"
       style="fill:#7d7d7d;fill-opacity:1;fill-rule:nonzero;stroke:none"
       transform="matrix(1.3333333,0,0,-1.3333333,0,101.12053)" />
    <path
       id="path19"
       d="m 144.062,25.26 h 1.059 v -4.872 h -1.059 z m 0,1.949 h 1.059 v -1.13 h -1.059 z"
       style="fill:#7d7d7d;fill-opacity:1;fill-rule:nonzero;stroke:none"
       transform="matrix(1.3333333,0,0,-1.3333333,0,101.12053)" />
    <path
       id="path20"
       d="M 0,0 V 2.26 H -0.622 V 3.167 H 0 V 4.579 H 1.059 V 3.167 H 2.39 V 2.26 H 1.059 V 0.117 c 0,-0.731 0.019,-0.984 0.524,-0.984 0.195,0 0.564,0.019 0.797,0.039 L 2.429,-1.686 C 2.147,-1.744 1.69,-1.812 1.438,-1.812 0.34,-1.812 0,-1.403 0,0"
       style="fill:#7d7d7d;fill-opacity:1;fill-rule:nonzero;stroke:none"
       transform="matrix(1.3333333,0,0,-1.3333333,195.5028,71.662)" />
    <path
       id="path21"
       d="m 0,0 h -0.835 l -1.273,4.872 h 1.049 l 1.02,-3.966 h 0.262 l 1.03,3.966 H 2.302 L 0.466,-2.095 h -1.049 z"
       style="fill:#7d7d7d;fill-opacity:1;fill-rule:nonzero;stroke:none"
       transform="matrix(1.3333333,0,0,-1.3333333,202.39613,73.935467)" />
    <path
       id="path22"
       d="m 45.365,24.253 c 0.769,-0.939 2.21,-2.374 4.264,-3.097 v 0 c 2.575,-0.906 3.378,-1.073 8.28,-5.939 v 0 h 3.363 v 1.762 h -3.363 v 1.903 h 5.67 v 1.761 h -5.587 c -0.054,0 -0.111,-0.001 -0.173,-0.001 v 0 c -0.744,0 -2.041,0.066 -3.463,0.435 v 0 c -2.728,0.708 -4.681,2.221 -5.685,4.392 v 0 C 47.67,25.116 46.57,24.713 45.365,24.253"
       transform="matrix(1.3333333,0,0,-1.3333333,0,101.12053)"
       style="fill:url(#linearGradient22);stroke:none" />
    <path
       id="path24"
       d="m 49.682,25.821 c 1.844,-3.817 6.687,-4.115 8.227,-4.109 v 0 0.835 h 12.444 v 1.762 H 57.909 v 1.903 h 18.316 v 1.762 H 57.909 v 0.002 C 57.633,27.967 55.552,27.83 49.682,25.821"
       transform="matrix(1.3333333,0,0,-1.3333333,0,101.12053)"
       style="fill:url(#linearGradient24);stroke:none" />
    <path
       id="path26"
       d="m 41.968,59.461 c 2.517,-2.173 1.899,-4.216 0.819,-6.614 v 0 c -0.64,-1.422 -0.398,-3.283 0.23,-4.128 v 0 c 0.146,-0.196 0.376,-0.422 0.646,-0.386 v 0 c 0.201,0.028 0.922,0.283 1.756,2.429 v 0 c 0.457,1.176 1.263,2.019 2.395,2.506 v 0 c 3.076,1.324 7.516,-0.469 7.703,-0.547 v 0 l -0.402,-0.987 c -0.042,0.017 -4.219,1.702 -6.883,0.553 v 0 C 47.361,51.912 46.764,51.286 46.41,50.374 v 0 c -0.747,-1.922 -1.623,-2.965 -2.604,-3.098 v 0 C 43.737,47.266 43.668,47.262 43.6,47.262 v 0 c -0.535,0 -1.038,0.285 -1.435,0.819 v 0 c -0.823,1.108 -1.179,3.358 -0.347,5.205 v 0 c 1.05,2.332 1.575,4.222 -1.12,5.821 v 0 c 0,0 -3.957,2.027 -9.028,-2.345 v 0 c 1.131,-0.811 1.919,-2.276 0.784,-4.914 v 0 c -1.166,-2.706 -0.864,-3.96 -0.598,-5.067 v 0 l 0.025,-0.1 c 0.501,-2.099 1.636,-2.912 2.5,-3.225 v 0 c 1.084,-0.392 2.077,-0.147 2.369,0.072 v 0 c 0.363,0.272 1.213,0.911 0.163,4.068 v 0 c -1.236,3.722 0.935,7.189 1.027,7.335 v 0 l 0.449,-0.287 0.448,-0.288 c -0.02,-0.031 -1.988,-3.192 -0.915,-6.423 v 0 c 1.145,-3.444 0.316,-4.62 -0.534,-5.259 v 0 c -0.385,-0.289 -1.058,-0.49 -1.831,-0.49 v 0 c -0.488,0 -1.016,0.08 -1.537,0.269 v 0 c -1.11,0.401 -2.561,1.418 -3.174,3.98 v 0 l -0.024,0.098 c -0.289,1.206 -0.65,2.707 0.655,5.74 v 0 c 0.975,2.264 0.235,3.239 -0.612,3.75 v 0 c -0.002,0 -0.003,0 -0.004,-10e-4 v 0 c 0,0 -9.518,2.275 -12.208,-9.118 v 0 c 0.732,0.322 1.791,0.7 2.979,0.835 v 0 c 0.755,0.086 1.46,0.057 2.11,-0.078 v 0 c 0.324,0.576 1.081,1.711 2.508,2.84 v 0 l 0.659,-0.838 c -1.142,-0.903 -1.801,-1.806 -2.127,-2.335 v 0 c 0.813,-0.361 1.509,-0.927 2.063,-1.699 v 0 c 1.487,-2.065 1.353,-3.898 0.917,-5.148 v 0 c 1.822,-2.356 4.362,-0.67 4.472,-0.596 v 0 l 0.602,-0.88 c -0.614,-0.422 -1.615,-0.85 -2.707,-0.85 v 0 c -0.952,0 -1.973,0.328 -2.863,1.27 v 0 C 27.02,39.016 26.81,38.785 26.802,38.777 v 0 l -0.777,0.728 c 0.09,0.097 2.171,2.422 -0.042,5.498 v 0 c -0.951,1.323 -2.375,1.886 -4.232,1.674 v 0 C 20.2,46.5 18.856,45.84 18.383,45.586 v 0 c 0,-10e-4 0,-0.002 0,-0.002 v 0 c 0,0 -3.177,-1.712 -3.212,-4.832 v 0 c -0.019,-1.866 0.571,-3.479 1.334,-4.676 v 0 c 1.159,-1.645 3.099,-1.196 3.119,-1.19 v 0 l 0.315,-1.019 c -0.01,-0.003 -0.353,-0.104 -0.88,-0.104 v 0 c -0.192,0 -0.409,0.014 -0.644,0.05 v 0 c 0.961,-1.528 4.643,-6.29 12.918,-5.678 v 0 c -0.531,0.736 -0.852,1.686 -0.968,2.866 v 0 c -0.206,-0.007 -0.41,-0.011 -0.61,-0.011 v 0 c -3.188,0 -5.498,0.909 -6.88,2.708 v 0 c -1.066,1.39 -1.549,3.33 -1.396,5.609 v 0 c 0.009,0.146 0.022,0.287 0.036,0.426 v 0 C 20.08,40.735 17.809,39.8 17.786,39.79 v 0 l -0.412,0.984 c 0.11,0.046 2.442,1.002 4.301,0.096 v 0 c 0.157,0.859 0.34,1.424 0.352,1.459 v 0 l 0.504,-0.168 0.505,-0.167 c 0,0 0,0 0,-10e-4 v 0 c -0.022,-0.069 -1.523,-4.775 0.684,-7.647 v 0 c 1.246,-1.619 3.464,-2.384 6.595,-2.278 v 0 c 10e-4,1.864 1.139,3.983 2.833,5.275 v 0 c 1.444,1.101 3.186,1.529 4.973,1.236 v 0 c 1.151,1.917 2.54,3.24 3.987,4.143 v 0 c 0.044,0.516 -0.135,1.016 -0.137,1.023 v 0 l 0.997,0.371 c 0.02,-0.056 0.135,-0.379 0.186,-0.814 v 0 c 1.703,0.828 3.425,1.145 4.886,1.226 v 0 c 0.888,0.049 1.726,0.017 2.481,-0.057 v 0 c 2.899,0.787 3.349,3.273 3.366,3.379 v 0 l 1.051,-0.169 c -0.017,-0.11 -0.378,-2.216 -2.454,-3.516 v 0 c 0.959,-0.206 1.557,-0.421 1.609,-0.44 v 0 l -0.364,-1.003 c 0,0 0,0 0,10e-4 v 0 c -0.046,0.016 -2.578,0.917 -5.665,0.738 v 0 c -3.856,-0.223 -6.83,-1.951 -8.851,-5.137 v 0 C 43.557,37.204 47,38.199 47.035,38.21 v 0 l 0.304,-1.023 C 47.182,37.14 43.412,36.04 38.608,37.381 v 0 c -2.21,0.616 -3.839,-0.143 -4.817,-0.887 v 0 C 32.37,35.411 31.378,33.59 31.378,32.067 v 0 c 0,-1.808 0.414,-3.053 1.265,-3.805 v 0 c 0.86,-0.762 2.208,-1.032 4.007,-0.806 v 0 l 0.132,-1.058 c -0.453,-0.057 -0.883,-0.086 -1.29,-0.086 v 0 c -0.809,0 -1.527,0.114 -2.154,0.337 v 0 C 34.759,24.97 38,22.854 44.711,25.149 v 0 c 0,0 0.002,-0.002 0.002,-0.003 v 0 c 9.591,3.676 12.711,3.888 13.196,3.896 v 0 0.835 h 20.774 v 1.762 H 57.909 v 0.834 c -0.838,-0.032 -2.082,-0.092 -3.276,-0.86 v 0 c -2.291,-1.475 -9.991,-3.3 -14.877,-0.368 v 0 c -0.233,-0.266 -0.587,-0.929 -0.437,-2.418 v 0 l -1.058,-0.108 c -0.3,2.969 1.111,3.608 1.272,3.672 v 0 l 0.257,0.1 0.229,-0.152 c 4.413,-2.919 11.936,-1.183 14.04,0.171 v 0 c 1.457,0.939 2.953,0.996 3.85,1.03 v 0 0.002 h 22.179 v 1.762 H 57.909 v 1.903 h 23.132 v 1.762 H 57.909 v 1.904 h 22.179 v 1.761 H 57.909 v 1.903 h 20.774 v 1.762 H 57.909 v 1.903 h 18.316 v 1.762 H 57.909 v 1.904 h 12.444 v 1.761 H 57.915 57.914 57.909 v 0.005 c -0.118,0.091 -2.362,1.828 -4.752,2.545 v 0 l -1.256,0.376 c 0,0 0.782,0.167 1.186,0.476 v 0 c 0.438,0.337 0.598,0.548 0.987,1.01 v 0 l 0.799,-0.596 C 54.706,57.177 54.472,56.986 54.358,56.89 v 0 c 1.483,-0.581 2.797,-1.413 3.551,-1.936 v 0 0.579 h 7.075 v 1.761 h -7.075 v 1.813 c 0,0 -2.684,1.475 -7.783,1.475 v 0 c -2.255,0 -4.982,-0.288 -8.158,-1.121 m 2.879,-0.535 c 1.737,0.326 3.038,0.077 3.866,-0.741 v 0 c 1.183,-1.168 0.884,-3.017 0.872,-3.094 v 0 l -0.525,0.089 -0.525,0.088 c 0.003,0.015 0.216,1.388 -0.571,2.16 v 0 c -0.567,0.556 -1.55,0.707 -2.921,0.449 v 0 z"
       transform="matrix(1.3333333,0,0,-1.3333333,0,101.12053)"
       style="fill:url(#linearGradient26);stroke:none" />
  </g>
</svg>
